HIERARCHY
ROOT ui
{
	 OFFSET 0 0 0
	 CHANNELS 3 XPosition YPosition Z Position
	 EndSite
	 {
	 OFFSET 0 -1 0
	 }
}
ROOT li
{
	 OFFSET 0 0 0
	 CHANNELS 3 XPosition YPosition Z Position
	 EndSite
	 {
	 OFFSET 0 -1 0
	 }
}
ROOT ul
{
	 OFFSET 0 0 0
	 CHANNELS 3 XPosition YPosition Z Position
	 EndSite
	 {
	 OFFSET 0 -1 0
	 }
}
ROOT ll
{
	 OFFSET 0 0 0
	 CHANNELS 3 XPosition YPosition Z Position
	 EndSite
	 {
	 OFFSET 0 -1 0
	 }
}
ROOT tt
{
	 OFFSET 0 0 0
	 CHANNELS 3 XPosition YPosition Z Position
	 EndSite
	 {
	 OFFSET 0 -1 0
	 }
}
ROOT tb
{
	 OFFSET 0 0 0
	 CHANNELS 3 XPosition YPosition Z Position
	 EndSite
	 {
	 OFFSET 0 -1 0
	 }
}
ROOT td
{
	 OFFSET 0 0 0
	 CHANNELS 3 XPosition YPosition Z Position
	 EndSite
	 {
	 OFFSET 0 -1 0
	 }
}
ROOT v
{
	 OFFSET 0 0 0
	 CHANNELS 3 XPosition YPosition Z Position
	 EndSite
	 {
	 OFFSET 0 -1 0
	 }
}
ROOT bn
{
	 OFFSET 0 0 0
	 CHANNELS 3 XPosition YPosition Z Position
	 EndSite
	 {
	 OFFSET 0 -1 0
	 }
}
MOTION
Frames: 16
Frame Time: 0.002
-0.0019867780208587646	-8.222699910402298E-5	0		0.5168333740234375	-2.41031591796875	0		-0.994046875	0.004899538040161132	0		-0.7789737548828125	-2.271115234375	0		1.04845068359375	-0.6261542358398438	0		2.89599951171875	-0.02569063949584961	0		4.47603466796875	0.021270866394042968	0		5.58899462890625	0.12623577880859374	0		-0.037607250213623045	5.98140380859375	0		
-0.0023182520866394042	-5.987700074911118E-5	0		0.46580154418945313	-2.40238818359375	0		-0.994378662109375	0.004850725173950196	0		-0.779142333984375	-2.271148681640625	0		1.1161031494140625	-0.6302151489257812	0		2.9046513671875	-0.026613672256469725	0		4.480564453125	0.01353037166595459	0		5.58865380859375	0.1266591796875	0		-0.038367786407470704	5.981423828125	0		
-0.0026718339920043946	-2.9980000108480452E-5	0		0.5014171142578125	-2.4139365234375	0		-0.9847509765625	0.003644459009170532	0		-0.7653965454101562	-2.274408203125	0		1.037057861328125	-0.6137711791992188	0		2.906435302734375	-0.018423952102661133	0		4.4682119140625	0.014064617156982422	0		5.59242724609375	0.13499493408203125	0		-0.05803484344482422	5.98677294921875	0		
4.871999844908715E-6	0.002957489967346191	0		0.4664337768554688	-2.399276611328125	0		-0.9810746459960937	0.006554616928100586	0		-0.7755104370117187	-2.267248291015625	0		1.0796650390625	-0.6173955688476562	0		2.90801171875	-0.02123980712890625	0		4.48803759765625	0.02603816032409668	0		5.60272216796875	0.11619429016113281	0		-0.05779368591308594	5.98579150390625	0		
-0.003436539888381958	5.710000172257424E-5	0		0.518032958984375	-2.408077880859375	0		-0.9914309692382812	0.008717347145080566	0		-0.7778097534179688	-2.26920849609375	0		1.053278076171875	-0.6188486328125	0		2.89865673828125	-0.01887908363342285	0		4.4674453125	0.014673638343811034	0		5.591646484375	0.13573519897460937	0		-0.07468180084228515	5.97610791015625	0		
-0.0038420729637145996	1.1606399714946746E-4	0		0.4917984619140625	-2.404556884765625	0		-0.9918369140625	0.008728341102600097	0		-0.7441771240234375	-2.273758056640625	0		1.1147257080078126	-0.6297793579101563	0		2.92421484375	-0.021116069793701172	0		4.4741728515625	0.02283085250854492	0		5.60123291015625	0.13589767456054688	0		-0.041281417846679686	5.9815908203125	0		
-0.004258338928222656	1.861100047826767E-4	0		0.46248641967773435	-2.40397998046875	0		-0.9914046020507813	-2.582710087299347E-4	0		-0.7834932250976563	-2.27306494140625	0		1.0463955078125	-0.625522705078125	0		2.874957275390625	-0.011103536605834961	0		4.46175732421875	0.023288673400878906	0		5.5908125	0.13636891174316407	0		-0.07604267120361329	5.97623046875	0		
-0.001630972981452942	0.0032170369625091552	0		0.46418075561523436	-2.401916015625	0		-0.9818451538085937	-0.0013782429695129396	0		-0.768888916015625	-2.276260986328125	0		1.055160888671875	-0.615556640625	0		2.90717919921875	-0.032471282958984375	0		4.46619921875	0.015442872047424316	0		5.60106591796875	0.11746346282958985	0		-0.0595245246887207	5.98502392578125	0		
0.007793846130371093	-0.005855342864990234	0		0.46690792846679685	-2.396860107421875	0		-0.9831346435546875	0.006703301906585694	0		-0.7672152709960938	-2.274222900390625	0		1.0777349853515625	-0.6168176879882813	0		2.92625537109375	-0.002617898941040039	0		4.47809130859375	0.03445848083496094	0		5.59507470703125	0.1438106689453125	0		-0.043950862884521484	5.9948466796875	0		
-0.0024733920097351073	0.0034160070419311525	0		0.5163671875	-2.407577392578125	0		-0.9876032104492187	0.0038546929359436037	0		-0.7435381469726563	-2.27153466796875	0		1.0712301025390625	-0.6225877685546874	0		2.900656494140625	-0.013030113220214844	0		4.47248876953125	0.0237462158203125	0		5.5895361328125	0.13712210083007811	0		-0.061647743225097654	5.986236328125	0		
-0.005932633876800537	5.844460129737854E-4	0		0.4900493469238281	-2.404018310546875	0		-0.9939287109375	0.009056435585021973	0		-0.781906494140625	-2.270794921875	0		1.115790771484375	-0.6252026977539062	0		2.878166748046875	-0.017498682022094727	0		4.4720791015625	0.023935077667236328	0		5.58912451171875	0.13732864379882812	0		-0.04325477981567383	5.98003759765625	0		
-0.006327676773071289	7.1527099609375E-4	0		0.5125596923828125	-2.411264404296875	0		-0.9934739379882812	1.6148899495601655E-4	0		-0.7754452514648438	-2.28078759765625	0		1.0673756103515626	-0.6262601318359375	0		2.900652099609375	-0.024719833374023437	0		4.47168359375	0.02411285972595215	0		5.58459521484375	0.1295858917236328	0		-0.0437125244140625	5.98016796875	0		
-0.006701862812042237	8.590819835662842E-4	0		0.4623559875488281	-2.4012861328125	0		-1.0578392333984374	0.0013656179904937744	0		-0.7707239379882812	-2.275732177734375	0		1.0700711669921874	-0.6221607666015625	0		2.893595458984375	-0.005445619106292724	0		4.472392578125	0.029264671325683594	0		5.59903515625	0.1185130615234375	0		-0.028956090927124024	5.990060546875	0		
0.022997976303100586	0.0035157110691070555	0		0.5169721069335937	-2.404044677734375	0		-0.9891281127929688	0.004371292114257812	0		-0.7710670776367188	-2.275576416015625	0		1.052844970703125	-0.6147205810546875	0		2.921012451171875	-0.01974965476989746	0		4.4840283203125	0.028227283477783204	0		5.5880068359375	0.13785736083984376	0		-0.029276323318481446	5.992216796875	0		
-0.004308897972106934	0.004134274005889892	0		0.4886585693359375	-2.40341064453125	0		-0.9894387817382813	0.00454299783706665	0		-0.773433837890625	-2.27837158203125	0		1.111307861328125	-0.6285355834960937	0		2.892938720703125	-0.0051245827674865725	0		4.46685302734375	0.03666554641723633	0		5.58769677734375	0.13801043701171875	0		-0.07787979888916016	5.97418798828125	0		
0.018351438522338868	-6.846100091934204E-5	0		0.5122860717773438	-2.40863330078125	0		-0.9988406372070312	-0.0031193969249725343	0		-0.7866170654296875	-2.271970703125	0		1.066073486328125	-0.625613525390625	0		2.915549072265625	-0.012346216201782226	0		4.47038330078125	0.024750709533691406	0		5.59742626953125	0.1379864959716797	0		-0.07907635498046875	5.976384765625	0		
